<svg id="Capa_1" enable-background="new 0 0 512 512" height="512" viewBox="0 0 512 512" width="512" xmlns="http://www.w3.org/2000/svg"><g><path d="m183.155 318.96c-40.231 0-72.846-32.614-72.846-72.846 0-61.398 32.614-135.285 72.846-135.285s72.845 73.886 72.845 135.285c0 40.231-32.614 72.846-72.845 72.846z" fill="#e7a561"/><path d="m110.309 246.114c0-41.553 14.94-88.818 37.068-115.036 13.124 9.68 24.989 24.614 34.885 44.242.305.606.592 1.235.893 1.848.3-.612.587-1.242.893-1.848 9.896-19.627 21.761-34.562 34.885-44.242 22.127 26.218 37.067 73.483 37.067 115.036 0 40.232-32.614 72.846-72.846 72.846s-72.845-32.615-72.845-72.846z" fill="#e49542"/><path d="m328.846 318.96c40.232 0 72.846-32.614 72.846-72.846 0-61.398-32.614-135.285-72.846-135.285s-72.846 73.886-72.846 135.285c0 40.231 32.614 72.846 72.846 72.846z" fill="#e7a561"/><path d="m401.691 246.114c0-41.553-14.94-88.818-37.068-115.036-13.124 9.68-24.989 24.614-34.885 44.242-.305.606-.592 1.235-.893 1.848-.3-.612-.587-1.242-.893-1.848-9.896-19.627-21.761-34.562-34.885-44.242-22.126 26.218-37.067 73.483-37.067 115.036 0 40.232 32.614 72.846 72.846 72.846s72.845-32.615 72.845-72.846z" fill="#e49542"/><path d="m256 349.138c40.231 0 72.846-32.614 72.846-72.846 0-61.398-32.614-135.285-72.846-135.285s-72.846 73.886-72.846 135.285c.001 40.232 32.615 72.846 72.846 72.846z" fill="#f1d0a5"/><path d="m328.84 274.059c-.643-50.491-22.934-108.642-53.163-127.103 13.545 26.308 21.957 60.698 21.957 91.874 0 4.116-.346 8.15-1.006 12.077-.846 5.033-5.175 8.736-10.278 8.736h-102.423c-.5 5.608-.764 11.179-.764 16.65 0 40.005 32.247 72.478 72.166 72.843 41.063.375 74.034-34.015 73.511-75.077z" fill="#f1b986"/><path d="m401.691 349.138c40.231 0 72.846-32.614 72.846-72.846 0-61.398-32.614-135.285-72.846-135.285s-72.846 73.886-72.846 135.285c.001 40.232 32.615 72.846 72.846 72.846z" fill="#f1d0a5"/><path d="m474.523 274.059c-.643-50.491-22.934-108.642-53.163-127.103 13.545 26.308 21.957 60.698 21.957 91.874 0 4.116-.346 8.15-1.006 12.077-.846 5.033-5.175 8.736-10.278 8.736h-102.423c-.5 5.608-.764 11.179-.764 16.65 0 40.005 32.247 72.478 72.166 72.843 41.063.375 74.034-34.015 73.511-75.077z" fill="#f1b986"/><path d="m110.309 349.138c-40.231 0-72.846-32.614-72.846-72.846 0-61.398 32.614-135.285 72.846-135.285s72.846 73.886 72.846 135.285c0 40.232-32.615 72.846-72.846 72.846z" fill="#f1d0a5"/><path d="m183.148 274.059c-.643-50.491-22.934-108.642-53.163-127.103 13.545 26.308 21.957 60.698 21.957 91.874 0 4.116-.346 8.15-1.006 12.077-.846 5.033-5.175 8.736-10.278 8.736h-102.423c-.5 5.608-.764 11.179-.764 16.65 0 40.005 32.247 72.478 72.166 72.843 41.064.375 74.034-34.015 73.511-75.077z" fill="#f1b986"/><path d="m37.463 317.919 9.267 74.136c.651 5.208 5.078 9.116 10.326 9.116h107.566c4.775 0 8.938-3.25 10.096-7.883l2.378-9.514c1.577-6.306 10.538-6.306 12.115 0l2.378 9.514c1.158 4.633 5.321 7.883 10.096 7.883h108.628c4.775 0 8.938-3.25 10.096-7.883l2.378-9.514c1.577-6.306 10.538-6.306 12.115 0l2.378 9.514c1.158 4.633 5.321 7.883 10.096 7.883h107.566c5.248 0 9.675-3.908 10.326-9.116l9.267-74.136z" fill="#b78b7a"/><path d="m447.48 317.919-10.406 83.252h17.87c5.248 0 9.675-3.908 10.326-9.116l9.267-74.136z" fill="#aa7a63"/><path d="m501.594 317.919h-491.187c-5.748 0-10.407-4.659-10.407-10.407v-12.488c0-5.747 4.659-10.406 10.407-10.406h491.187c5.747 0 10.407 4.659 10.407 10.406v12.488c-.001 5.748-4.66 10.407-10.407 10.407z" fill="#c19d8e"/><path d="m501.594 284.618h-24.976c5.747 0 10.407 4.659 10.407 10.406v12.488c0 5.747-4.659 10.407-10.407 10.407h24.976c5.747 0 10.407-4.659 10.407-10.407v-12.488c-.001-5.747-4.66-10.406-10.407-10.406z" fill="#b78b7a"/></g></svg>